STARTFONT 2.1
FONT -FontForge-Helvetica-Bold-R-Normal--62-600-75-75-P-344-ISO10646-1
SIZE 60 75 75
FONTBOUNDINGBOX 74 75 -11 -14
COMMENT "Generated by fontforge, http://fontforge.sourceforge.net"
COMMENT "(c) 1990-91 Apple Computer Inc. (c) 1981 Linotype AG (c) 1990-91 Type Solutions Inc."
STARTPROPERTIES 40
FOUNDRY "FontForge"
FAMILY_NAME "Helvetica"
WEIGHT_NAME "Bold"
SLANT "R"
SETWIDTH_NAME "Normal"
ADD_STYLE_NAME ""
PIXEL_SIZE 62
POINT_SIZE 600
RESOLUTION_X 75
RESOLUTION_Y 75
SPACING "P"
AVERAGE_WIDTH 344
CHARSET_REGISTRY "ISO10646"
CHARSET_ENCODING "1"
FONTNAME_REGISTRY ""
CHARSET_COLLECTIONS "Symbol ISO10646-1"
FONT_NAME "Helvetica-Bold"
FACE_NAME "Helvetica Bold"
COPYRIGHT "(c) 1990-91 Apple Computer Inc. (c) 1981 Linotype AG (c) 1990-91 Type Solutions Inc."
FONT_VERSION "1.0"
FONT_ASCENT 48
FONT_DESCENT 14
UNDERLINE_POSITION -6
UNDERLINE_THICKNESS 4
X_HEIGHT 33
CAP_HEIGHT 44
RAW_ASCENT 770
RAW_DESCENT 229
NORM_SPACE 17
RELATIVE_WEIGHT 70
RELATIVE_SETWIDTH 50
SUPERSCRIPT_X 0
SUPERSCRIPT_Y 28
SUPERSCRIPT_SIZE 40
SUBSCRIPT_X 0
SUBSCRIPT_Y 8
SUBSCRIPT_SIZE 40
FIGURE_WIDTH 34
AVG_LOWERCASE_WIDTH 340
AVG_UPPERCASE_WIDTH 421
ENDPROPERTIES
CHARS 117
STARTCHAR space
ENCODING 32
SWIDTH 277 0
DWIDTH 17 0
BBX 1 1 0 0
BITMAP
00
ENDCHAR
STARTCHAR exclam
ENCODING 33
SWIDTH 333 0
DWIDTH 20 0
BBX 9 45 7 0
BITMAP
FF80
FF80
FF80
FF80
FF80
FF80
FF80
FF80
FF80
FF80
FF80
FF80
FF80
FF80
FF80
FF80
7F80
7F00
7F00
7F00
7F00
7F00
7F00
7F00
7F00
7F00
7F00
3E00
3E00
3E00
3E00
3E00
0000
0000
0000
0000
FF80
FF80
FF80
FF80
FF80
FF80
FF80
FF80
FF80
ENDCHAR
STARTCHAR quotedbl
ENCODING 34
SWIDTH 474 0
DWIDTH 28 0
BBX 18 18 6 27
BITMAP
FE1FC0
FE1FC0
FE1FC0
FE1FC0
FE1FC0
FE1FC0
FE1FC0
FE1FC0
FE1FC0
7C0F80
7C0F80
7C0F80
7C0F80
7C0F80
7C0F80
7C0F80
7C0F80
7C0F80
ENDCHAR
STARTCHAR numbersign
ENCODING 35
SWIDTH 556 0
DWIDTH 34 0
BBX 34 44 0 0
BITMAP
0003F07E00
0003F07E00
0003F07E00
0007F0FC00
0007E0FC00
0007E0FC00
0007E1FC00
000FE1F800
000FC1F800
000FC1F800
000FC3F800
001FC3F000
001F83F000
07FFFFFFC0
07FFFFFFC0
0FFFFFFF80
0FFFFFFF80
0FFFFFFF80
003F0FE000
007E0FC000
007E0FC000
007E0FC000
00FE1FC000
00FC1F8000
00FC1F8000
00FC1F8000
01FC3F0000
7FFFFFFC00
7FFFFFFC00
7FFFFFFC00
FFFFFFF800
FFFFFFF800
03F07E0000
03F0FE0000
07F0FC0000
07E0FC0000
07E0FC0000
07E1FC0000
0FC1F80000
0FC1F80000
0FC1F80000
1FC3F80000
1F83F00000
1F83F00000
ENDCHAR
STARTCHAR dollar
ENCODING 36
SWIDTH 556 0
DWIDTH 34 0
BBX 30 56 2 -7
BITMAP
00038000
00038000
00038000
00038000
003FF000
00FFFE00
03FFFF00
07FFFF80
0FFFFFC0
1FFFFFE0
3FFFFFF0
3FF39FF0
3FC38FF0
7F838FF8
7F8387F8
7F8387F8
7F8387F8
7F838000
7FC38000
7FC38000
7FF38000
3FFF8000
3FFFC000
1FFFF000
0FFFFC00
07FFFF00
03FFFFC0
00FFFFE0
003FFFF0
0007FFF0
0003FFF8
00039FF8
00038FFC
000387FC
000383FC
FF0383FC
FF0383FC
FF0383FC
FF8383FC
FF8383FC
7F8387F8
7FC387F8
7FF39FF8
3FFFFFF0
3FFFFFF0
1FFFFFE0
0FFFFFC0
07FFFF80
01FFFE00
001FF000
00038000
00038000
00038000
00038000
00038000
00038000
ENDCHAR
STARTCHAR percent
ENCODING 37
SWIDTH 889 0
DWIDTH 55 0
BBX 52 46 1 -1
BITMAP
007F00001E0000
03FFC0003E0000
07FFE0003C0000
0FFFF0007C0000
1FFFF800780000
3FFFFC00F80000
7FFFFE00F00000
7FC3FE01F00000
FF00FE01E00000
FF00FF03E00000
FE007F03C00000
FE007F07C00000
FE007F07800000
FE007F0F800000
FF00FF0F000000
FF00FF1F000000
7FC3FE1E000000
7FFFFE3E000000
3FFFFC3C000000
1FFFF87C000000
0FFFF078000000
07FFE0F8000000
03FFC0F00FF000
00FE01F03FFC00
000001E07FFE00
000003E0FFFF00
000003C1FFFF80
000007C3FFFFC0
00000787FFFFE0
00000F87FC3FE0
00000F0FF00FE0
00001F0FF00FF0
00001E0FE007F0
00003E0FE007F0
00003C0FE007F0
00007C0FE007F0
0000780FF00FF0
0000F80FF00FE0
0000F007FC3FE0
0001F007FFFFE0
0001E003FFFFC0
0003E001FFFF80
0003C000FFFF00
0007C0007FFE00
000780003FFC00
000F80000FE000
ENDCHAR
STARTCHAR ampersand
ENCODING 38
SWIDTH 722 0
DWIDTH 45 0
BBX 40 46 3 -1
BITMAP
0007F80000
001FFE0000
007FFF8000
00FFFFC000
00FFFFC000
01FFFFE000
01FFFFE000
03FF1FF000
03FC0FF000
03FC07F000
03FC07F000
03FC07F000
03FE0FF000
03FE0FF000
01FF1FE000
01FFFFE000
00FFFFC000
007FFF8000
007FFF0000
003FFE0000
00FFF80000
03FFFC07F8
07FFFC07F8
0FFFFE07F8
1FFFFF07F8
3FFDFF8FF0
3FF1FFCFF0
7FE0FFCFF0
7FC07FFFF0
FFC03FFFE0
FF803FFFE0
FF801FFFC0
FF800FFF80
FF8007FF80
FF8007FF00
FFC003FF80
7FC007FF80
7FE00FFFC0
7FF83FFFE0
3FFFFFFFF0
1FFFFFFFF0
1FFFFFDFF8
0FFFFF9FFC
03FFFF0FFE
01FFFC07FF
003FE00000
ENDCHAR
STARTCHAR quotesingle
ENCODING 39
SWIDTH 237 0
DWIDTH 14 0
BBX 7 18 4 27
BITMAP
FE
FE
FE
FE
FE
FE
FE
FE
FE
7C
7C
7C
7C
7C
7C
7C
7C
7C
ENDCHAR
STARTCHAR parenleft
ENCODING 40
SWIDTH 333 0
DWIDTH 21 0
BBX 17 58 1 -13
BITMAP
001F80
003F00
003F00
007E00
00FE00
00FC00
01FC00
03F800
03F800
07F000
07F000
0FF000
0FE000
1FE000
1FE000
1FE000
3FC000
3FC000
3FC000
7FC000
7FC000
7F8000
7F8000
FF8000
FF8000
FF8000
FF8000
FF8000
FF8000
FF8000
FF8000
FF8000
FF8000
FF8000
FF8000
FF8000
7F8000
7FC000
7FC000
7FC000
3FC000
3FC000
3FC000
1FE000
1FE000
0FE000
0FF000
07F000
07F000
03F800
03F800
01FC00
01FC00
00FE00
007E00
007F00
003F00
001F80
ENDCHAR
STARTCHAR parenright
ENCODING 41
SWIDTH 333 0
DWIDTH 21 0
BBX 17 58 1 -13
BITMAP
FE0000
7F0000
7F0000
3F8000
3FC000
1FC000
1FE000
0FE000
0FF000
07F000
07F800
07F800
03FC00
03FC00
03FC00
03FE00
01FE00
01FE00
01FF00
01FF00
01FF00
00FF00
00FF80
00FF80
00FF80
00FF80
00FF80
00FF80
00FF80
00FF80
00FF80
00FF80
00FF80
00FF80
00FF80
00FF00
00FF00
01FF00
01FF00
01FF00
01FE00
01FE00
03FE00
03FC00
03FC00
03FC00
07F800
07F800
07F000
0FF000
0FE000
1FE000
1FC000
3FC000
3F8000
7F0000
7E0000
FE0000
ENDCHAR
STARTCHAR asterisk
ENCODING 42
SWIDTH 389 0
DWIDTH 24 0
BBX 21 20 1 25
BITMAP
00F800
00F800
00F800
00F800
40F820
78F8F0
7FFFF0
7FFFF0
FFFFF8
7FFFF0
07FF00
03FE00
03FE00
07FF00
0FDF80
1F8FC0
1F8FC0
3F07E0
0E0380
040200
ENDCHAR
STARTCHAR plus
ENCODING 43
SWIDTH 583 0
DWIDTH 35 0
BBX 32 34 2 0
BITMAP
000FF000
000FF000
000FF000
000FF000
000FF000
000FF000
000FF000
000FF000
000FF000
000FF000
000FF000
000FF000
000FF000
FFFFFFFF
FFFFFFFF
FFFFFFFF
FFFFFFFF
FFFFFFFF
FFFFFFFF
FFFFFFFF
FFFFFFFF
000FF000
000FF000
000FF000
000FF000
000FF000
000FF000
000FF000
000FF000
000FF000
000FF000
000FF000
000FF000
000FF000
ENDCHAR
STARTCHAR comma
ENCODING 44
SWIDTH 277 0
DWIDTH 17 0
BBX 9 20 4 -11
BITMAP
FF80
FF80
FF80
FF80
FF80
FF80
FF80
FF80
FF80
0780
0780
0780
0F00
0F00
1F00
1E00
7C00
F800
F000
C000
ENDCHAR
STARTCHAR hyphen
ENCODING 45
SWIDTH 333 0
DWIDTH 20 0
BBX 17 8 1 13
BITMAP
FFFF80
FFFF80
FFFF80
FFFF80
FFFF80
FFFF80
FFFF80
FFFF80
ENDCHAR
STARTCHAR period
ENCODING 46
SWIDTH 277 0
DWIDTH 17 0
BBX 9 9 4 0
BITMAP
FF80
FF80
FF80
FF80
FF80
FF80
FF80
FF80
FF80
ENDCHAR
STARTCHAR slash
ENCODING 47
SWIDTH 277 0
DWIDTH 17 0
BBX 25 46 -4 0
BITMAP
00007F80
00007F00
00007F00
0000FF00
0000FE00
0001FE00
0001FE00
0001FC00
0003FC00
0003F800
0003F800
0007F800
0007F000
000FF000
000FF000
000FE000
001FE000
001FC000
001FC000
003FC000
003F8000
003F8000
007F8000
007F0000
00FF0000
00FF0000
00FE0000
01FE0000
01FC0000
01FC0000
03FC0000
03F80000
07F80000
07F80000
07F00000
0FF00000
0FE00000
0FE00000
1FE00000
1FC00000
1FC00000
3FC00000
3F800000
7F800000
7F800000
FF000000
ENDCHAR
STARTCHAR zero
ENCODING 48
SWIDTH 556 0
DWIDTH 34 0
BBX 30 46 2 -1
BITMAP
001FE000
00FFFC00
03FFFF00
07FFFF80
0FFFFFC0
0FFFFFC0
1FFFFFE0
1FF87FE0
3FE01FF0
3FE01FF0
7FC00FF0
7FC00FF8
7FC00FF8
7FC00FF8
7F8007F8
FF8007FC
FF8007FC
FF8007FC
FF8007FC
FF8007FC
FF8007FC
FF8007FC
FF8007FC
FF8007FC
FF8007FC
FF8007FC
FF8007FC
FF8007FC
FF8007FC
FF8007FC
FF8007FC
7F800FF8
7FC00FF8
7FC00FF8
7FC00FF8
7FC00FF0
3FE01FF0
3FF01FF0
1FF87FE0
1FFFFFE0
0FFFFFC0
0FFFFFC0
07FFFF80
03FFFF00
00FFFC00
001FE000
ENDCHAR
STARTCHAR one
ENCODING 49
SWIDTH 556 0
DWIDTH 34 0
BBX 19 44 5 0
BITMAP
000FE0
000FE0
001FE0
001FE0
003FE0
003FE0
00FFE0
07FFE0
FFFFE0
FFFFE0
FFFFE0
FFFFE0
FFFFE0
FFFFE0
003FE0
003FE0
003FE0
003FE0
003FE0
003FE0
003FE0
003FE0
003FE0
003FE0
003FE0
003FE0
003FE0
003FE0
003FE0
003FE0
003FE0
003FE0
003FE0
003FE0
003FE0
003FE0
003FE0
003FE0
003FE0
003FE0
003FE0
003FE0
003FE0
003FE0
ENDCHAR
STARTCHAR two
ENCODING 50
SWIDTH 556 0
DWIDTH 34 0
BBX 30 45 2 0
BITMAP
001FE000
00FFFC00
03FFFF00
07FFFF80
0FFFFFC0
0FFFFFE0
1FFFFFF0
1FF83FF0
3FF01FF8
3FE00FF8
3FE00FFC
7FC007FC
7FC007FC
7FC007FC
7FC007FC
7FC007FC
000007FC
00000FFC
00000FFC
00001FF8
00001FF8
00003FF0
00007FF0
0000FFE0
0001FFC0
0007FFC0
000FFF80
001FFE00
003FFC00
00FFF800
01FFF000
03FFC000
07FF8000
07FF0000
0FFE0000
1FFC0000
1FF80000
3FF00000
3FFFFFFC
7FFFFFFC
7FFFFFFC
FFFFFFFC
FFFFFFFC
FFFFFFFC
FFFFFFFC
ENDCHAR
STARTCHAR three
ENCODING 51
SWIDTH 556 0
DWIDTH 34 0
BBX 30 46 2 -1
BITMAP
003FF000
00FFFC00
03FFFF00
07FFFF80
0FFFFFC0
1FFFFFE0
1FFFFFF0
3FF87FF0
3FF01FF0
3FE01FF8
7FC00FF8
7FC00FF8
7FC00FF8
7FC00FF8
00000FF8
00000FF8
00001FF0
00003FF0
0000FFE0
000FFFC0
000FFF80
000FFE00
000FFF80
000FFFE0
000FFFE0
000FFFF0
00007FF8
00001FF8
00000FFC
00000FFC
000007FC
FF8007FC
FF8007FC
FF8007FC
FF8007FC
7FC00FFC
7FC00FF8
7FE01FF8
7FF87FF0
3FFFFFF0
1FFFFFE0
1FFFFFC0
0FFFFF80
07FFFF00
01FFFC00
003FE000
ENDCHAR
STARTCHAR four
ENCODING 52
SWIDTH 556 0
DWIDTH 34 0
BBX 31 44 2 0
BITMAP
0001FFC0
0001FFC0
0003FFC0
0003FFC0
0007FFC0
0007FFC0
000FFFC0
001FFFC0
001FFFC0
003FFFC0
003FFFC0
007F7FC0
007E7FC0
00FE7FC0
01FC7FC0
01FC7FC0
03F87FC0
03F07FC0
07F07FC0
0FE07FC0
0FE07FC0
1FC07FC0
1FC07FC0
3F807FC0
3F007FC0
7F007FC0
FE007FC0
FE007FC0
FFFFFFFE
FFFFFFFE
FFFFFFFE
FFFFFFFE
FFFFFFFE
FFFFFFFE
FFFFFFFE
00007FC0
00007FC0
00007FC0
00007FC0
00007FC0
00007FC0
00007FC0
00007FC0
00007FC0
ENDCHAR
STARTCHAR five
ENCODING 53
SWIDTH 556 0
DWIDTH 34 0
BBX 30 45 2 -1
BITMAP
07FFFFF0
07FFFFF0
07FFFFF0
0FFFFFF0
0FFFFFF0
0FFFFFF0
0FFFFFF0
0FE00000
0FE00000
0FE00000
1FC00000
1FC00000
1FC00000
1FC00000
1FC00000
1FC7F800
1FDFFE00
3FFFFF80
3FFFFFC0
3FFFFFE0
3FFFFFF0
3FFFFFF0
3FF07FF8
3FE01FF8
7FC00FF8
00000FFC
00000FFC
000007FC
000007FC
000007FC
000007FC
000007FC
FF8007FC
FF800FFC
FFC00FF8
7FC00FF8
7FE01FF0
7FF07FF0
3FFFFFE0
3FFFFFE0
1FFFFFC0
0FFFFF80
03FFFF00
01FFFC00
003FE000
ENDCHAR
STARTCHAR six
ENCODING 54
SWIDTH 556 0
DWIDTH 34 0
BBX 30 46 2 -1
BITMAP
001FF000
007FFE00
01FFFF00
03FFFFC0
07FFFFC0
0FFFFFE0
0FFFFFF0
1FF83FF0
1FF01FF8
3FE00FF8
3FE00FF8
7FC00000
7FC00000
7FC00000
7FC00000
7F800000
FF83F800
FF9FFE00
FFBFFF80
FFFFFFC0
FFFFFFE0
FFFFFFF0
FFFFFFF0
FFF87FF8
FFE01FF8
FFC00FF8
FFC00FFC
FF8007FC
FF8007FC
FF8007FC
FF8007FC
FF8007FC
7F8007FC
7F8007FC
7FC007FC
7FC00FF8
3FE00FF8
3FE01FF8
1FF83FF0
1FFFFFF0
0FFFFFE0
07FFFFC0
03FFFF80
01FFFF00
00FFFC00
001FF000
ENDCHAR
STARTCHAR seven
ENCODING 55
SWIDTH 556 0
DWIDTH 34 0
BBX 31 44 2 0
BITMAP
FFFFFFFE
FFFFFFFE
FFFFFFFE
FFFFFFFE
FFFFFFFE
FFFFFFFE
FFFFFFFE
000007FC
00000FF8
00000FF0
00001FE0
00003FE0
00007FC0
00007F80
0000FF80
0000FF00
0001FE00
0003FE00
0003FC00
0007FC00
0007F800
000FF800
000FF000
001FF000
001FE000
003FE000
003FE000
007FC000
007FC000
007FC000
00FF8000
00FF8000
00FF8000
00FF8000
01FF0000
01FF0000
01FF0000
01FF0000
03FF0000
03FE0000
03FE0000
03FE0000
03FE0000
03FE0000
ENDCHAR
STARTCHAR eight
ENCODING 56
SWIDTH 556 0
DWIDTH 34 0
BBX 31 46 2 -1
BITMAP
001FF000
00FFFE00
03FFFF80
07FFFFC0
0FFFFFE0
1FFFFFF0
3FFFFFF8
3FF83FF8
7FE00FF8
7FE00FFC
7FC007FC
7FC007FC
7FC007FC
7FC007FC
7FC007FC
3FE00FF8
3FE00FF8
1FF83FF0
1FFFFFF0
0FFFFFE0
03FFFF80
03FFFF80
0FFFFFE0
1FFFFFF0
3FFFFFF0
3FF83FF8
7FE00FFC
7FC007FC
FFC007FC
FF8003FE
FF8003FE
FF8003FE
FF8003FE
FF8003FE
FF8003FE
FFC007FE
7FC007FC
7FE00FFC
7FF83FFC
3FFFFFF8
1FFFFFF0
1FFFFFE0
0FFFFFC0
03FFFF80
01FFFE00
003FF000
ENDCHAR
STARTCHAR nine
ENCODING 57
SWIDTH 556 0
DWIDTH 34 0
BBX 31 46 2 -1
BITMAP
001FE000
00FFFC00
03FFFF00
07FFFF80
0FFFFFC0
1FFFFFE0
3FFFFFF0
3FF83FF0
7FE00FF8
7FC00FF8
7FC007F8
FF8007FC
FF8003FC
FF8003FC
FF8003FC
FF8003FE
FF8003FE
FF8003FE
FF8003FE
FFC007FE
7FC007FE
7FE00FFE
7FF83FFE
3FFFFFFE
3FFFFFFE
1FFFFFFE
0FFFFFFE
07FFFBFE
01FFF3FE
003F83FE
000003FC
000007FC
000007FC
000007FC
000007F8
7FC00FF8
7FC00FF8
7FE01FF0
3FF87FF0
3FFFFFE0
1FFFFFC0
0FFFFFC0
07FFFF80
03FFFE00
00FFFC00
003FE000
ENDCHAR
STARTCHAR colon
ENCODING 58
SWIDTH 333 0
DWIDTH 20 0
BBX 9 32 7 0
BITMAP
FF80
FF80
FF80
FF80
FF80
FF80
FF80
FF80
FF80
0000
0000
0000
0000
0000
0000
0000
0000
0000
0000
0000
0000
0000
0000
FF80
FF80
FF80
FF80
FF80
FF80
FF80
FF80
FF80
ENDCHAR
STARTCHAR semicolon
ENCODING 59
SWIDTH 333 0
DWIDTH 20 0
BBX 9 43 7 -11
BITMAP
FF80
FF80
FF80
FF80
FF80
FF80
FF80
FF80
FF80
0000
0000
0000
0000
0000
0000
0000
0000
0000
0000
0000
0000
0000
0000
FF80
FF80
FF80
FF80
FF80
FF80
FF80
FF80
FF80
0780
0780
0780
0F00
0F00
1F00
1E00
7C00
F800
F000
C000
ENDCHAR
STARTCHAR less
ENCODING 60
SWIDTH 583 0
DWIDTH 36 0
BBX 36 35 0 -2
BITMAP
0000000010
0000000070
00000001F0
0000000FF0
0000007FF0
000003FFF0
00000FFFF0
00007FFFF0
0003FFFFF0
001FFFFFE0
007FFFFF00
03FFFFF800
1FFFFFC000
7FFFFF0000
FFFFF80000
FFFFC00000
FFFF000000
FFF8000000
FFFF000000
FFFFC00000
FFFFF80000
7FFFFF0000
1FFFFFE000
03FFFFF800
007FFFFF00
001FFFFFE0
0003FFFFF0
00007FFFF0
00000FFFF0
000003FFF0
0000007FF0
0000000FF0
00000001F0
0000000070
0000000010
ENDCHAR
STARTCHAR equal
ENCODING 61
SWIDTH 583 0
DWIDTH 36 0
BBX 33 22 2 5
BITMAP
FFFFFFFF80
FFFFFFFF80
FFFFFFFF80
FFFFFFFF80
FFFFFFFF80
FFFFFFFF80
FFFFFFFF80
FFFFFFFF80
0000000000
0000000000
0000000000
0000000000
0000000000
0000000000
FFFFFFFF80
FFFFFFFF80
FFFFFFFF80
FFFFFFFF80
FFFFFFFF80
FFFFFFFF80
FFFFFFFF80
FFFFFFFF80
ENDCHAR
STARTCHAR greater
ENCODING 62
SWIDTH 583 0
DWIDTH 36 0
BBX 36 35 0 -2
BITMAP
8000000000
E000000000
F800000000
FF00000000
FFE0000000
FFFC000000
FFFF000000
FFFFE00000
FFFFFC0000
7FFFFF0000
0FFFFFE000
01FFFFFC00
007FFFFF80
000FFFFFE0
0001FFFFF0
00003FFFF0
00000FFFF0
000001FFF0
00000FFFF0
00003FFFF0
0001FFFFF0
000FFFFFE0
003FFFFF80
01FFFFFC00
0FFFFFE000
7FFFFF8000
FFFFFC0000
FFFFE00000
FFFF000000
FFFC000000
FFE0000000
FF00000000
F800000000
E000000000
8000000000
ENDCHAR
STARTCHAR question
ENCODING 63
SWIDTH 610 0
DWIDTH 38 0
BBX 31 45 4 0
BITMAP
003FF000
01FFFE00
03FFFF80
0FFFFFE0
1FFFFFF0
1FFFFFF8
3FFFFFF8
7FF03FFC
7FE01FFC
7FC00FFE
FFC007FE
FF8007FE
FF8007FE
FF8007FE
000007FE
00000FFE
00000FFC
00001FFC
00003FF8
00007FF8
0000FFF0
0003FFE0
0007FF80
0007FF00
000FFE00
000FF800
001FF000
001FF000
001FE000
001FE000
001FE000
001FE000
00000000
00000000
00000000
00000000
001FF000
001FF000
001FF000
001FF000
001FF000
001FF000
001FF000
001FF000
001FF000
ENDCHAR
STARTCHAR at
ENCODING 64
SWIDTH 975 0
DWIDTH 60 0
BBX 49 49 6 -1
BITMAP
000007FF000000
00007FFFF00000
0003FFFFFC0000
000FFFFFFF0000
001FFFFFFFC000
007FFC00FFE000
00FFC0001FF000
01FF000007F800
03FC000001FC00
07F8000000FC00
07E00000007E00
0FC003F0003E00
1FC00FF87E3F00
1F803FFC7C1F00
3F007FFEFC1F00
3E00FFFEFC0F80
7E01FF0FF80F80
7C01FE07F80F80
7C03FC03F80F80
7C03F803F00F80
FC07F803F00F80
F807F003F00F80
F80FF003F00F80
F80FF007E00F80
F80FE007E01F00
F80FE007E01F00
F80FE00FE01F00
F80FE00FC03F00
F80FE01FC07E00
F80FE01FC07E00
7C0FF03FC0FC00
7C07F87FE3F800
7C07FFFBFFF000
7E03FFF3FFE000
3E01FFE1FFC000
3F00FFC0FF8000
1F803F007E0000
1FC00000000000
0FE00000002000
07F00000006000
07F8000001F000
03FE000007F800
01FF80001FF000
00FFF801FFC000
003FFFFFFF8000
001FFFFFFE0000
0007FFFFF80000
0001FFFFC00000
00001FFE000000
ENDCHAR
STARTCHAR A
ENCODING 65
SWIDTH 722 0
DWIDTH 43 0
BBX 43 45 0 0
BITMAP
0001FFE00000
0001FFF00000
0001FFF00000
0003FFF00000
0003FFF80000
0003FFF80000
0007FFFC0000
0007FFFC0000
0007FFFC0000
000FFFFE0000
000FFBFE0000
000FFBFE0000
001FFBFF0000
001FF1FF0000
003FF1FF0000
003FF1FF8000
003FE1FF8000
007FE0FF8000
007FE0FFC000
007FE0FFC000
00FFC07FC000
00FFC07FE000
00FFC07FE000
01FF803FE000
01FF803FF000
01FF803FF000
03FF001FF000
03FF001FF800
03FFFFFFF800
07FFFFFFFC00
07FFFFFFFC00
0FFFFFFFFC00
0FFFFFFFFE00
0FFFFFFFFE00
1FFFFFFFFE00
1FFFFFFFFF00
1FF80003FF00
3FF80003FF00
3FF00003FF80
3FF00001FF80
7FF00001FF80
7FE00001FFC0
7FE00000FFC0
FFE00000FFC0
FFC00000FFE0
ENDCHAR
STARTCHAR B
ENCODING 66
SWIDTH 722 0
DWIDTH 45 0
BBX 37 45 5 0
BITMAP
FFFFFFE000
FFFFFFFC00
FFFFFFFE00
FFFFFFFF80
FFFFFFFFC0
FFFFFFFFC0
FFFFFFFFE0
FFFFFFFFE0
FFC000FFF0
FFC0003FF0
FFC0001FF0
FFC0001FF0
FFC0001FF0
FFC0001FF0
FFC0001FF0
FFC0003FE0
FFC0003FE0
FFC000FFE0
FFFFFFFFC0
FFFFFFFF80
FFFFFFFE00
FFFFFFFC00
FFFFFFFF00
FFFFFFFFC0
FFFFFFFFE0
FFFFFFFFE0
FFC000FFF0
FFC0003FF0
FFC0003FF8
FFC0001FF8
FFC0001FF8
FFC0001FF8
FFC0001FF8
FFC0001FF8
FFC0003FF8
FFC0007FF0
FFC000FFF0
FFFFFFFFF0
FFFFFFFFE0
FFFFFFFFC0
FFFFFFFFC0
FFFFFFFF80
FFFFFFFE00
FFFFFFFC00
FFFFFFC000
ENDCHAR
STARTCHAR C
ENCODING 67
SWIDTH 722 0
DWIDTH 44 0
BBX 39 47 3 -1
BITMAP
0001FF8000
000FFFF000
003FFFFE00
00FFFFFF00
01FFFFFF80
03FFFFFFC0
07FFFFFFE0
0FFFFFFFF0
0FFF81FFF8
1FFE007FF8
1FFC003FFC
3FF8001FFC
3FF0000FFC
7FF0000FFE
7FE00007FE
7FE00007FE
7FE0000000
FFE0000000
FFC0000000
FFC0000000
FFC0000000
FFC0000000
FFC0000000
FFC0000000
FFC0000000
FFC0000000
FFC0000000
FFC0000000
FFC0000000
FFC0000000
7FE0000000
7FE00007FE
7FE00007FE
7FF0000FFC
3FF0000FFC
3FF8001FFC
1FFC003FF8
1FFE007FF8
0FFF81FFF0
0FFFFFFFF0
07FFFFFFE0
03FFFFFFC0
01FFFFFF80
00FFFFFF00
003FFFFC00
000FFFF000
0001FF8000
ENDCHAR
STARTCHAR D
ENCODING 68
SWIDTH 722 0
DWIDTH 45 0
BBX 38 45 5 0
BITMAP
FFFFFF0000
FFFFFFF000
FFFFFFFC00
FFFFFFFE00
FFFFFFFF00
FFFFFFFF80
FFFFFFFFC0
FFFFFFFFC0
FFC003FFE0
FFC000FFF0
FFC0007FF0
FFC0003FF0
FFC0003FF8
FFC0001FF8
FFC0001FF8
FFC0001FF8
FFC0000FFC
FFC0000FFC
FFC0000FFC
FFC0000FFC
FFC0000FFC
FFC0000FFC
FFC0000FFC
FFC0000FFC
FFC0000FFC
FFC0000FFC
FFC0000FFC
FFC0001FFC
FFC0001FF8
FFC0001FF8
FFC0001FF8
FFC0003FF8
FFC0003FF0
FFC0007FF0
FFC000FFE0
FFC001FFE0
FFC007FFC0
FFFFFFFFC0
FFFFFFFF80
FFFFFFFF00
FFFFFFFE00
FFFFFFFC00
FFFFFFF800
FFFFFFE000
FFFFFF0000
ENDCHAR
STARTCHAR E
ENCODING 69
SWIDTH 666 0
DWIDTH 41 0
BBX 34 45 5 0
BITMAP
FFFFFFFF80
FFFFFFFF80
FFFFFFFF80
FFFFFFFF80
FFFFFFFF80
FFFFFFFF80
FFFFFFFF80
FFFFFFFF80
FFC0000000
FFC0000000
FFC0000000
FFC0000000
FFC0000000
FFC0000000
FFC0000000
FFC0000000
FFC0000000
FFC0000000
FFFFFFFE00
FFFFFFFE00
FFFFFFFE00
FFFFFFFE00
FFFFFFFE00
FFFFFFFE00
FFFFFFFE00
FFFFFFFE00
FFC0000000
FFC0000000
FFC0000000
FFC0000000
FFC0000000
FFC0000000
FFC0000000
FFC0000000
FFC0000000
FFC0000000
FFC0000000
FFFFFFFFC0
FFFFFFFFC0
FFFFFFFFC0
FFFFFFFFC0
FFFFFFFFC0
FFFFFFFFC0
FFFFFFFFC0
FFFFFFFFC0
ENDCHAR
STARTCHAR F
ENCODING 70
SWIDTH 610 0
DWIDTH 38 0
BBX 32 45 5 0
BITMAP
FFFFFFFF
FFFFFFFF
FFFFFFFF
FFFFFFFF
FFFFFFFF
FFFFFFFF
FFFFFFFF
FFFFFFFF
FFC00000
FFC00000
FFC00000
FFC00000
FFC00000
FFC00000
FFC00000
FFC00000
FFC00000
FFC00000
FFFFFFF8
FFFFFFF8
FFFFFFF8
FFFFFFF8
FFFFFFF8
FFFFFFF8
FFFFFFF8
FFFFFFF8
FFC00000
FFC00000
FFC00000
FFC00000
FFC00000
FFC00000
FFC00000
FFC00000
FFC00000
FFC00000
FFC00000
FFC00000
FFC00000
FFC00000
FFC00000
FFC00000
FFC00000
FFC00000
FFC00000
ENDCHAR
STARTCHAR G
ENCODING 71
SWIDTH 777 0
DWIDTH 48 0
BBX 41 47 3 -1
BITMAP
00007FE00000
0007FFFC0000
001FFFFF8000
007FFFFFC000
00FFFFFFE000
01FFFFFFF000
03FFFFFFF800
07FFFFFFFC00
0FFFC07FFE00
0FFF001FFE00
1FFE0007FF00
1FFC0007FF00
3FF80003FF80
3FF00001FF80
7FF00001FF80
7FE000000000
7FE000000000
7FE000000000
FFC000000000
FFC000000000
FFC000000000
FFC000000000
FFC003FFFF80
FFC003FFFF80
FFC003FFFF80
FFC003FFFF80
FFC003FFFF80
FFC003FFFF80
FFC003FFFF80
FFC003FFFF80
7FE00000FF80
7FE00000FF80
7FE00001FF80
7FF00001FF80
3FF80003FF80
3FF80003FF80
1FFE0007FF80
1FFF001FFF80
0FFFC07FFF80
07FFFFFFFF80
07FFFFFFFF80
03FFFFFFBF80
01FFFFFF3F80
007FFFFE3F80
003FFFF83F80
000FFFE03F80
0001FF000000
ENDCHAR
STARTCHAR H
ENCODING 72
SWIDTH 722 0
DWIDTH 45 0
BBX 36 45 5 0
BITMAP
FFC0003FF0
FFC0003FF0
FFC0003FF0
FFC0003FF0
FFC0003FF0
FFC0003FF0
FFC0003FF0
FFC0003FF0
FFC0003FF0
FFC0003FF0
FFC0003FF0
FFC0003FF0
FFC0003FF0
FFC0003FF0
FFC0003FF0
FFC0003FF0
FFC0003FF0
FFFFFFFFF0
FFFFFFFFF0
FFFFFFFFF0
FFFFFFFFF0
FFFFFFFFF0
FFFFFFFFF0
FFFFFFFFF0
FFFFFFFFF0
FFC0003FF0
FFC0003FF0
FFC0003FF0
FFC0003FF0
FFC0003FF0
FFC0003FF0
FFC0003FF0
FFC0003FF0
FFC0003FF0
FFC0003FF0
FFC0003FF0
FFC0003FF0
FFC0003FF0
FFC0003FF0
FFC0003FF0
FFC0003FF0
FFC0003FF0
FFC0003FF0
FFC0003FF0
FFC0003FF0
ENDCHAR
STARTCHAR I
ENCODING 73
SWIDTH 277 0
DWIDTH 18 0
BBX 10 45 4 0
BITMAP
FFC0
FFC0
FFC0
FFC0
FFC0
FFC0
FFC0
FFC0
FFC0
FFC0
FFC0
FFC0
FFC0
FFC0
FFC0
FFC0
FFC0
FFC0
FFC0
FFC0
FFC0
FFC0
FFC0
FFC0
FFC0
FFC0
FFC0
FFC0
FFC0
FFC0
FFC0
FFC0
FFC0
FFC0
FFC0
FFC0
FFC0
FFC0
FFC0
FFC0
FFC0
FFC0
FFC0
FFC0
FFC0
ENDCHAR
STARTCHAR J
ENCODING 74
SWIDTH 556 0
DWIDTH 34 0
BBX 29 46 1 -1
BITMAP
00001FF8
00001FF8
00001FF8
00001FF8
00001FF8
00001FF8
00001FF8
00001FF8
00001FF8
00001FF8
00001FF8
00001FF8
00001FF8
00001FF8
00001FF8
00001FF8
00001FF8
00001FF8
00001FF8
00001FF8
00001FF8
00001FF8
00001FF8
00001FF8
00001FF8
00001FF8
00001FF8
00001FF8
FF801FF8
FF801FF8
FF801FF8
FF801FF8
FF801FF8
FF801FF8
FFC01FF8
7FC03FF8
7FC03FF0
7FF07FF0
7FFFFFF0
3FFFFFE0
3FFFFFE0
1FFFFFC0
0FFFFF80
07FFFF00
01FFFC00
003FE000
ENDCHAR
STARTCHAR K
ENCODING 75
SWIDTH 722 0
DWIDTH 44 0
BBX 40 45 5 0
BITMAP
FFC0003FFE
FFC0007FF8
FFC000FFF0
FFC001FFE0
FFC003FFC0
FFC007FF80
FFC00FFF00
FFC01FFF00
FFC01FFE00
FFC03FFC00
FFC07FF800
FFC0FFF000
FFC1FFE000
FFC3FFC000
FFC7FF8000
FFCFFF0000
FFDFFE0000
FFFFFC0000
FFFFF80000
FFFFF80000
FFFFFC0000
FFFFFE0000
FFFFFF0000
FFFFFF0000
FFFFFF8000
FFFFFFC000
FFFBFFC000
FFF1FFE000
FFE0FFF000
FFC0FFF800
FFC07FF800
FFC03FFC00
FFC01FFE00
FFC01FFE00
FFC00FFF00
FFC007FF80
FFC007FF80
FFC003FFC0
FFC001FFE0
FFC000FFF0
FFC000FFF0
FFC0007FF8
FFC0003FFC
FFC0003FFC
FFC0001FFF
ENDCHAR
STARTCHAR L
ENCODING 76
SWIDTH 610 0
DWIDTH 38 0
BBX 32 45 5 0
BITMAP
FFC00000
FFC00000
FFC00000
FFC00000
FFC00000
FFC00000
FFC00000
FFC00000
FFC00000
FFC00000
FFC00000
FFC00000
FFC00000
FFC00000
FFC00000
FFC00000
FFC00000
FFC00000
FFC00000
FFC00000
FFC00000
FFC00000
FFC00000
FFC00000
FFC00000
FFC00000
FFC00000
FFC00000
FFC00000
FFC00000
FFC00000
FFC00000
FFC00000
FFC00000
FFC00000
FFC00000
FFC00000
FFFFFFFF
FFFFFFFF
FFFFFFFF
FFFFFFFF
FFFFFFFF
FFFFFFFF
FFFFFFFF
FFFFFFFF
ENDCHAR
STARTCHAR M
ENCODING 77
SWIDTH 833 0
DWIDTH 52 0
BBX 43 45 5 0
BITMAP
FFFC0007FFE0
FFFC0007FFE0
FFFC0007FFE0
FFFE0007FFE0
FFFE000FFFE0
FFFE000FFFE0
FFFE000FFFE0
FFFE000FFFE0
FFFF000FFFE0
FFFF001FFFE0
FFBF001FBFE0
FFBF001FBFE0
FFBF801FBFE0
FFBF803FBFE0
FF9F803F3FE0
FF9F803F3FE0
FF9F803F3FE0
FF9FC03F3FE0
FF9FC07F3FE0
FF8FC07E3FE0
FF8FC07E3FE0
FF8FE07E3FE0
FF8FE0FE3FE0
FF8FE0FE3FE0
FF87E0FC3FE0
FF87E0FC3FE0
FF87F0FC3FE0
FF87F1FC3FE0
FF83F1F83FE0
FF83F1F83FE0
FF83F9F83FE0
FF83FBF83FE0
FF83FBF83FE0
FF81FBF03FE0
FF81FBF03FE0
FF81FFF03FE0
FF81FFF03FE0
FF81FFE03FE0
FF80FFE03FE0
FF80FFE03FE0
FF80FFE03FE0
FF80FFE03FE0
FF807FC03FE0
FF807FC03FE0
FF807FC03FE0
ENDCHAR
STARTCHAR N
ENCODING 78
SWIDTH 722 0
DWIDTH 45 0
BBX 36 45 5 0
BITMAP
FFC0001FF0
FFE0001FF0
FFE0001FF0
FFF0001FF0
FFF8001FF0
FFF8001FF0
FFFC001FF0
FFFC001FF0
FFFE001FF0
FFFE001FF0
FFFF001FF0
FFFF801FF0
FFFF801FF0
FFFFC01FF0
FFFFC01FF0
FFFFE01FF0
FFBFF01FF0
FF9FF01FF0
FF9FF81FF0
FF8FF81FF0
FF8FFC1FF0
FF87FC1FF0
FF87FE1FF0
FF83FF1FF0
FF81FF1FF0
FF81FF9FF0
FF80FF9FF0
FF80FFDFF0
FF807FDFF0
FF807FFFF0
FF803FFFF0
FF801FFFF0
FF801FFFF0
FF800FFFF0
FF800FFFF0
FF8007FFF0
FF8003FFF0
FF8003FFF0
FF8001FFF0
FF8001FFF0
FF8000FFF0
FF8000FFF0
FF80007FF0
FF80003FF0
FF80003FF0
ENDCHAR
STARTCHAR O
ENCODING 79
SWIDTH 777 0
DWIDTH 48 0
BBX 43 47 3 -1
BITMAP
0000FFE00000
0007FFFE0000
003FFFFF8000
007FFFFFC000
00FFFFFFE000
03FFFFFFF800
07FFFFFFFC00
07FFFFFFFC00
0FFFC07FFE00
1FFF001FFF00
1FFE000FFF00
3FFC0007FF80
3FF80003FF80
7FF00001FFC0
7FF00001FFC0
7FE00000FFC0
7FE00000FFC0
FFE00000FFE0
FFC000007FE0
FFC000007FE0
FFC000007FE0
FFC000007FE0
FFC000007FE0
FFC000007FE0
FFC000007FE0
FFC000007FE0
FFC000007FE0
FFC000007FE0
FFC000007FE0
FFE00000FFE0
7FE00000FFC0
7FE00000FFC0
7FF00001FFC0
7FF00001FF80
3FF80003FF80
3FFC0007FF80
1FFE000FFF00
1FFF001FFF00
0FFFC07FFE00
07FFFFFFFC00
07FFFFFFF800
03FFFFFFF800
00FFFFFFE000
007FFFFFC000
003FFFFF8000
000FFFFE0000
0000FFE00000
ENDCHAR
STARTCHAR P
ENCODING 80
SWIDTH 666 0
DWIDTH 41 0
BBX 34 45 5 0
BITMAP
FFFFFF0000
FFFFFFE000
FFFFFFF800
FFFFFFFC00
FFFFFFFE00
FFFFFFFF00
FFFFFFFF00
FFFFFFFF80
FFC007FF80
FFC003FF80
FFC001FFC0
FFC000FFC0
FFC000FFC0
FFC000FFC0
FFC000FFC0
FFC000FFC0
FFC000FFC0
FFC000FFC0
FFC001FFC0
FFC003FFC0
FFC007FF80
FFFFFFFF80
FFFFFFFF80
FFFFFFFF00
FFFFFFFE00
FFFFFFFC00
FFFFFFF800
FFFFFFE000
FFFFFF0000
FFC0000000
FFC0000000
FFC0000000
FFC0000000
FFC0000000
FFC0000000
FFC0000000
FFC0000000
FFC0000000
FFC0000000
FFC0000000
FFC0000000
FFC0000000
FFC0000000
FFC0000000
FFC0000000
ENDCHAR
STARTCHAR Q
ENCODING 81
SWIDTH 777 0
DWIDTH 48 0
BBX 43 49 3 -3
BITMAP
00007FE00000
0007FFFC0000
001FFFFF0000
007FFFFFC000
00FFFFFFE000
01FFFFFFF000
03FFFFFFF800
07FFFFFFFC00
0FFFC07FFE00
1FFF001FFF00
1FFC0007FF00
3FF80003FF80
3FF80003FF80
3FF00001FFC0
7FF00001FFC0
7FE00000FFC0
7FE00000FFC0
FFE00000FFE0
FFC000007FE0
FFC000007FE0
FFC000007FE0
FFC000007FE0
FFC000007FE0
FFC000007FE0
FFC000007FE0
FFC000007FE0
FFC000007FE0
FFC000007FE0
FFC00000FFE0
FFE00030FFC0
7FE00078FFC0
7FE000FCFFC0
7FF001FFFFC0
7FF003FFFF80
3FF801FFFF80
3FFC00FFFF00
1FFE007FFF00
1FFF003FFE00
0FFFC07FFC00
07FFFFFFFC00
03FFFFFFFE00
01FFFFFFFF00
00FFFFFFFFC0
007FFFFFFFE0
001FFFFE7FC0
0007FFF81FC0
0000FFC00F80
000000000700
000000000200
ENDCHAR
STARTCHAR R
ENCODING 82
SWIDTH 722 0
DWIDTH 44 0
BBX 38 45 5 0
BITMAP
FFFFFFE000
FFFFFFFC00
FFFFFFFF00
FFFFFFFF80
FFFFFFFFC0
FFFFFFFFE0
FFFFFFFFE0
FFFFFFFFF0
FFC000FFF0
FFC0007FF8
FFC0003FF8
FFC0001FF8
FFC0001FF8
FFC0001FF8
FFC0001FF8
FFC0001FF8
FFC0001FF0
FFC0003FF0
FFC0007FF0
FFC000FFE0
FFFFFFFFE0
FFFFFFFFC0
FFFFFFFF00
FFFFFFFE00
FFFFFFFE00
FFFFFFFF80
FFFFFFFFC0
FFFFFFFFE0
FFC001FFE0
FFC0007FE0
FFC0007FF0
FFC0003FF0
FFC0003FF0
FFC0003FF0
FFC0003FF0
FFC0003FF0
FFC0003FF0
FFC0003FF0
FFC0003FF0
FFC0003FF0
FFC0003FF0
FFC0003FF0
FFC0003FF8
FFC0003FF8
FFC0001FFC
ENDCHAR
STARTCHAR S
ENCODING 83
SWIDTH 666 0
DWIDTH 42 0
BBX 37 47 3 -1
BITMAP
0007FE0000
007FFFE000
01FFFFF800
03FFFFFC00
07FFFFFE00
0FFFFFFF80
1FFFFFFF80
1FFFFFFFC0
3FFC03FFE0
3FF000FFE0
7FE0007FE0
7FC0003FF0
7FC0003FF0
7FC0001FF0
7FC0001FF0
7FC0000000
7FE0000000
7FF8000000
3FFF000000
3FFFF00000
3FFFFF0000
1FFFFFF000
0FFFFFFE00
07FFFFFF00
01FFFFFFC0
007FFFFFE0
0007FFFFE0
00003FFFF0
000003FFF0
0000007FF8
0000001FF8
0000000FF8
FF80000FF8
FF80000FF8
FFC0000FF8
FFC0000FF8
7FE0001FF8
7FF0003FF0
7FFE01FFF0
3FFFFFFFE0
1FFFFFFFE0
1FFFFFFFC0
0FFFFFFF80
03FFFFFF00
01FFFFFC00
003FFFF000
0007FF0000
ENDCHAR
STARTCHAR T
ENCODING 84
SWIDTH 610 0
DWIDTH 38 0
BBX 36 45 1 0
BITMAP
FFFFFFFFF0
FFFFFFFFF0
FFFFFFFFF0
FFFFFFFFF0
FFFFFFFFF0
FFFFFFFFF0
FFFFFFFFF0
FFFFFFFFF0
0007FE0000
0007FE0000
0007FE0000
0007FE0000
0007FE0000
0007FE0000
0007FE0000
0007FE0000
0007FE0000
0007FE0000
0007FE0000
0007FE0000
0007FE0000
0007FE0000
0007FE0000
0007FE0000
0007FE0000
0007FE0000
0007FE0000
0007FE0000
0007FE0000
0007FE0000
0007FE0000
0007FE0000
0007FE0000
0007FE0000
0007FE0000
0007FE0000
0007FE0000
0007FE0000
0007FE0000
0007FE0000
0007FE0000
0007FE0000
0007FE0000
0007FE0000
0007FE0000
ENDCHAR
STARTCHAR U
ENCODING 85
SWIDTH 722 0
DWIDTH 45 0
BBX 36 46 5 -1
BITMAP
FFC0003FF0
FFC0003FF0
FFC0003FF0
FFC0003FF0
FFC0003FF0
FFC0003FF0
FFC0003FF0
FFC0003FF0
FFC0003FF0
FFC0003FF0
FFC0003FF0
FFC0003FF0
FFC0003FF0
FFC0003FF0
FFC0003FF0
FFC0003FF0
FFC0003FF0
FFC0003FF0
FFC0003FF0
FFC0003FF0
FFC0003FF0
FFC0003FF0
FFC0003FF0
FFC0003FF0
FFC0003FF0
FFC0003FF0
FFC0003FF0
FFC0003FF0
FFC0003FF0
FFC0003FF0
FFC0003FF0
FFC0003FF0
FFC0003FF0
FFE0007FF0
7FE0007FE0
7FF000FFE0
7FF801FFE0
3FFE07FFC0
3FFFFFFFC0
1FFFFFFF80
1FFFFFFF80
0FFFFFFF00
07FFFFFE00
01FFFFF800
007FFFE000
000FFF0000
ENDCHAR
STARTCHAR V
ENCODING 86
SWIDTH 666 0
DWIDTH 41 0
BBX 41 45 0 0
BITMAP
FFE00003FF80
7FE00003FF00
7FE00003FF00
7FF00007FF00
3FF00007FE00
3FF00007FE00
3FF80007FE00
1FF8000FFC00
1FF8000FFC00
1FF8000FFC00
0FFC001FF800
0FFC001FF800
07FC001FF800
07FE001FF000
07FE003FF000
03FE003FF000
03FE003FE000
03FF007FE000
01FF007FE000
01FF007FC000
01FF80FFC000
00FF80FFC000
00FF80FF8000
00FF80FF8000
007FC1FF0000
007FC1FF0000
007FC1FF0000
003FE3FE0000
003FE3FE0000
003FE3FE0000
001FE3FC0000
001FF7FC0000
001FF7FC0000
000FF7F80000
000FFFF80000
000FFFF80000
0007FFF00000
0007FFF00000
0007FFF00000
0003FFE00000
0003FFE00000
0003FFE00000
0001FFC00000
0001FFC00000
0001FFC00000
ENDCHAR
STARTCHAR W
ENCODING 87
SWIDTH 943 0
DWIDTH 57 0
BBX 57 45 0 0
BITMAP
FFC000FF8001FF80
7FE001FF8001FF80
7FE001FFC003FF00
7FE001FFC003FF00
7FE001FFC003FF00
3FF001FFC003FF00
3FF003FFC007FE00
3FF003FFE007FE00
1FF003FFE007FE00
1FF803FFE007FC00
1FF803F7E00FFC00
1FF803F7E00FFC00
0FF807F7F00FFC00
0FF807F7F00FF800
0FFC07F7F00FF800
0FFC07F7F01FF800
07FC07E3F01FF800
07FC0FE3F81FF000
07FE0FE3F81FF000
03FE0FE3F83FF000
03FE0FE3F83FE000
03FE0FC1F83FE000
03FE1FC1FC3FE000
01FF1FC1FC7FE000
01FF1FC1FC7FC000
01FF1FC1FC7FC000
00FF1F80FC7FC000
00FFBF80FE7F8000
00FFBF80FEFF8000
00FFBF80FEFF8000
007FBF80FEFF8000
007FBF00FEFF0000
007FBF007EFF0000
007FFF007FFF0000
003FFF007FFE0000
003FFF007FFE0000
003FFE007FFE0000
001FFE003FFE0000
001FFE003FFC0000
001FFE003FFC0000
001FFE003FFC0000
000FFC003FF80000
000FFC001FF80000
000FFC001FF80000
0007FC001FF80000
ENDCHAR
STARTCHAR X
ENCODING 88
SWIDTH 666 0
DWIDTH 41 0
BBX 40 45 1 0
BITMAP
7FF8001FFE
3FFC003FFC
1FFC003FF8
0FFE007FF0
0FFE007FF0
07FF00FFE0
07FF01FFE0
03FF81FFC0
01FF83FF80
01FFC3FF80
00FFE7FF00
00FFE7FE00
007FFFFE00
003FFFFC00
003FFFFC00
001FFFF800
001FFFF000
000FFFF000
0007FFE000
0007FFE000
0003FFC000
0003FF8000
0001FFC000
0003FFC000
0007FFE000
0007FFF000
000FFFF000
001FFFF800
001FFFF800
003FFFFC00
003FFFFE00
007FF7FE00
00FFE7FF00
00FFE3FF00
01FFC3FF80
03FFC1FFC0
03FF81FFC0
07FF00FFE0
07FF00FFF0
0FFE007FF0
1FFE003FF8
1FFC003FF8
3FFC001FFC
7FF8001FFE
FFF0000FFF
ENDCHAR
STARTCHAR Y
ENCODING 89
SWIDTH 666 0
DWIDTH 42 0
BBX 40 45 1 0
BITMAP
FFE00007FF
7FE00007FF
7FF0000FFE
3FF0000FFC
3FF8001FFC
1FF8001FF8
1FFC003FF8
0FFC003FF0
0FFE007FF0
07FE007FE0
07FF00FFE0
03FF00FFC0
01FF81FF80
01FF81FF80
00FFC3FF00
00FFC3FF00
007FE7FE00
007FE7FE00
003FE7FC00
003FFFF800
001FFFF800
000FFFF000
000FFFF000
0007FFE000
0007FFE000
0003FFC000
0003FFC000
0001FF8000
0001FF8000
0001FF8000
0001FF8000
0001FF8000
0001FF8000
0001FF8000
0001FF8000
0001FF8000
0001FF8000
0001FF8000
0001FF8000
0001FF8000
0001FF8000
0001FF8000
0001FF8000
0001FF8000
0001FF8000
ENDCHAR
STARTCHAR Z
ENCODING 90
SWIDTH 610 0
DWIDTH 38 0
BBX 35 45 1 0
BITMAP
7FFFFFFFE0
7FFFFFFFE0
7FFFFFFFE0
7FFFFFFFE0
7FFFFFFFE0
7FFFFFFFE0
7FFFFFFFE0
7FFFFFFFE0
000003FFC0
000007FFC0
00000FFF80
00001FFF00
00001FFE00
00003FFE00
00007FFC00
0000FFF800
0000FFF000
0001FFE000
0003FFE000
0007FFC000
0007FF8000
000FFF0000
001FFF0000
003FFE0000
003FFC0000
007FF80000
00FFF80000
01FFF00000
03FFE00000
03FFC00000
07FFC00000
0FFF800000
1FFF000000
1FFE000000
3FFC000000
7FFC000000
FFF8000000
FFFFFFFFE0
FFFFFFFFE0
FFFFFFFFE0
FFFFFFFFE0
FFFFFFFFE0
FFFFFFFFE0
FFFFFFFFE0
FFFFFFFFE0
ENDCHAR
STARTCHAR bracketleft
ENCODING 91
SWIDTH 333 0
DWIDTH 20 0
BBX 15 57 4 -12
BITMAP
FFFE
FFFE
FFFE
FFFE
FFFE
FFFE
FFFE
FF80
FF80
FF80
FF80
FF80
FF80
FF80
FF80
FF80
FF80
FF80
FF80
FF80
FF80
FF80
FF80
FF80
FF80
FF80
FF80
FF80
FF80
FF80
FF80
FF80
FF80
FF80
FF80
FF80
FF80
FF80
FF80
FF80
FF80
FF80
FF80
FF80
FF80
FF80
FF80
FF80
FF80
FF80
FFFE
FFFE
FFFE
FFFE
FFFE
FFFE
FFFE
ENDCHAR
STARTCHAR backslash
ENCODING 92
SWIDTH 277 0
DWIDTH 17 0
BBX 25 46 -4 0
BITMAP
FF000000
7F000000
7F800000
3F800000
3F800000
3FC00000
1FC00000
1FC00000
1FE00000
0FE00000
0FF00000
0FF00000
07F00000
07F80000
03F80000
03F80000
03FC0000
01FC0000
01FC0000
01FE0000
00FE0000
00FF0000
00FF0000
007F0000
007F8000
003F8000
003F8000
003FC000
001FC000
001FC000
001FE000
000FE000
000FF000
0007F000
0007F000
0007F800
0003F800
0003F800
0003FC00
0001FC00
0001FC00
0001FE00
0000FE00
0000FF00
00007F00
00007F80
ENDCHAR
STARTCHAR bracketright
ENCODING 93
SWIDTH 333 0
DWIDTH 20 0
BBX 15 57 1 -12
BITMAP
FFFE
FFFE
FFFE
FFFE
FFFE
FFFE
FFFE
03FE
03FE
03FE
03FE
03FE
03FE
03FE
03FE
03FE
03FE
03FE
03FE
03FE
03FE
03FE
03FE
03FE
03FE
03FE
03FE
03FE
03FE
03FE
03FE
03FE
03FE
03FE
03FE
03FE
03FE
03FE
03FE
03FE
03FE
03FE
03FE
03FE
03FE
03FE
03FE
03FE
03FE
03FE
FFFE
FFFE
FFFE
FFFE
FFFE
FFFE
FFFE
ENDCHAR
STARTCHAR asciicircum
ENCODING 94
SWIDTH 583 0
DWIDTH 35 0
BBX 29 27 3 18
BITMAP
001FC000
001FC000
003FE000
003FE000
007FF000
007FF000
007FF000
00FFF800
00FFF800
01FFFC00
01FFFC00
01FDFC00
03FDFE00
03F8FE00
07F8FF00
07F8FF00
07F07F00
0FF07F80
0FE03F80
1FE03FC0
1FE03FC0
1FC01FC0
3FC01FE0
3F800FE0
7F800FF0
7F800FF0
FF0007F8
ENDCHAR
STARTCHAR underscore
ENCODING 95
SWIDTH 556 0
DWIDTH 34 0
BBX 34 3 0 -8
BITMAP
FFFFFFFFC0
FFFFFFFFC0
FFFFFFFFC0
ENDCHAR
STARTCHAR grave
ENCODING 96
SWIDTH 333 0
DWIDTH 20 0
BBX 15 9 0 39
BITMAP
FFC0
7FC0
3FE0
1FF0
0FF0
07F8
03F8
01FC
00FE
ENDCHAR
STARTCHAR a
ENCODING 97
SWIDTH 556 0
DWIDTH 35 0
BBX 31 36 2 -1
BITMAP
003FF000
01FFFE00
03FFFFC0
0FFFFFE0
1FFFFFF0
1FFFFFF0
3FFFFFF0
3FF03FF8
3FE01FF8
7FE00FF8
7FC00FF8
7FC00FF8
00001FF8
00007FF8
000FFFF8
01FFFFF8
07FFFFF8
1FFFFFF8
3FFFFFF8
3FFF8FF8
7FF80FF8
7FE00FF8
FFC00FF8
FF800FF8
FF800FF8
FF801FF8
FF801FF8
FFC03FF8
FFE0FFF8
FFFFFFF8
7FFFFFF8
7FFFF7F8
3FFFE7F8
1FFFC7FC
07FF03FE
01FC0000
ENDCHAR
STARTCHAR b
ENCODING 98
SWIDTH 610 0
DWIDTH 38 0
BBX 32 46 4 -1
BITMAP
FF800000
FF800000
FF800000
FF800000
FF800000
FF800000
FF800000
FF800000
FF800000
FF800000
FF81FC00
FF8FFF80
FF9FFFC0
FFBFFFE0
FFFFFFF0
FFFFFFF8
FFFFFFF8
FFF81FFC
FFF00FFC
FFE007FE
FFC003FE
FFC003FE
FFC003FF
FF8001FF
FF8001FF
FF8001FF
FF8001FF
FF8001FF
FF8001FF
FF8001FF
FF8001FF
FF8001FF
FF8001FF
FFC003FE
FFC003FE
FFE003FE
FFE007FE
FFF00FFC
FFFC1FFC
FFFFFFF8
FFFFFFF8
FFFFFFF0
FFBFFFE0
FF9FFFC0
FF8FFF80
0001FC00
ENDCHAR
STARTCHAR c
ENCODING 99
SWIDTH 556 0
DWIDTH 34 0
BBX 30 36 2 -1
BITMAP
001FF000
00FFFE00
01FFFF80
07FFFFC0
0FFFFFE0
1FFFFFF0
1FFFFFF0
3FF83FF8
3FF01FF8
7FE00FF8
7FC00FFC
7FC007FC
7FC007FC
FF800000
FF800000
FF800000
FF800000
FF800000
FF800000
FF800000
FF800000
FF800000
FF800000
FF8007FC
7FC007FC
7FC00FFC
7FE00FF8
7FE01FF8
3FF83FF0
3FFFFFF0
1FFFFFE0
0FFFFFC0
07FFFF80
03FFFF00
00FFFC00
001FF000
ENDCHAR
STARTCHAR d
ENCODING 100
SWIDTH 610 0
DWIDTH 38 0
BBX 32 46 2 -1
BITMAP
000001FF
000001FF
000001FF
000001FF
000001FF
000001FF
000001FF
000001FF
000001FF
000001FF
003F81FF
00FFF1FF
03FFF9FF
07FFFDFF
0FFFFFFF
1FFFFFFF
1FFFFFFF
3FF83FFF
3FF00FFF
7FE007FF
7FE003FF
7FC003FF
7FC003FF
FF8001FF
FF8001FF
FF8001FF
FF8001FF
FF8001FF
FF8001FF
FF8001FF
FF8001FF
FF8001FF
FF8001FF
FFC003FF
7FC003FF
7FC007FF
7FE007FF
3FF00FFF
3FF83FFF
1FFFFFFF
1FFFFFFF
0FFFFDFF
07FFFDFF
03FFF9FF
00FFE1FF
003F8000
ENDCHAR
STARTCHAR e
ENCODING 101
SWIDTH 556 0
DWIDTH 34 0
BBX 32 36 1 -1
BITMAP
000FF000
007FFE00
01FFFF80
03FFFFE0
07FFFFF0
0FFFFFF0
1FFFFFF8
3FF81FFC
3FF00FFC
7FE007FE
7FC003FE
7FC001FE
7F8001FE
FF8001FF
FFFFFFFF
FFFFFFFF
FFFFFFFF
FFFFFFFF
FFFFFFFF
FFFFFFFF
FF800000
FF800000
FF800000
FF800000
7FC00000
7FC003FE
7FE003FE
3FF007FC
3FFC1FFC
1FFFFFF8
0FFFFFF0
0FFFFFF0
03FFFFC0
01FFFF80
007FFE00
000FF000
ENDCHAR
STARTCHAR f
ENCODING 102
SWIDTH 333 0
DWIDTH 21 0
BBX 19 45 1 0
BITMAP
001FE0
00FFE0
01FFE0
03FFE0
03FFE0
07FFE0
07FFE0
07FE00
07FC00
07FC00
07FC00
FFFFE0
FFFFE0
FFFFE0
FFFFE0
FFFFE0
FFFFE0
07FC00
07FC00
07FC00
07FC00
07FC00
07FC00
07FC00
07FC00
07FC00
07FC00
07FC00
07FC00
07FC00
07FC00
07FC00
07FC00
07FC00
07FC00
07FC00
07FC00
07FC00
07FC00
07FC00
07FC00
07FC00
07FC00
07FC00
07FC00
ENDCHAR
STARTCHAR g
ENCODING 103
SWIDTH 610 0
DWIDTH 38 0
BBX 32 48 2 -13
BITMAP
003F8000
00FFF1FF
03FFF9FF
07FFFDFF
0FFFFFFF
1FFFFFFF
1FFFFFFF
3FF83FFF
3FF00FFF
7FE007FF
7FC003FF
7FC003FF
FFC003FF
FF8001FF
FF8001FF
FF8001FF
FF8001FF
FF8001FF
FF8001FF
FF8001FF
FF8001FF
FF8001FF
FFC003FF
7FC003FF
7FC003FF
7FE007FF
7FF00FFF
3FF83FFF
3FFFFFFF
1FFFFFFF
0FFFFFFF
07FFFDFF
03FFF9FF
01FFF1FF
003F81FF
000001FF
000001FF
000003FF
7FC003FE
7FE007FE
7FF01FFE
3FFFFFFC
3FFFFFFC
1FFFFFF8
0FFFFFF0
07FFFFE0
01FFFF80
001FF800
ENDCHAR
STARTCHAR h
ENCODING 104
SWIDTH 610 0
DWIDTH 38 0
BBX 30 45 4 0
BITMAP
FF800000
FF800000
FF800000
FF800000
FF800000
FF800000
FF800000
FF800000
FF800000
FF800000
FF81FC00
FF87FF80
FF9FFFC0
FFBFFFE0
FFFFFFF0
FFFFFFF8
FFFFFFF8
FFF83FFC
FFF01FFC
FFE00FFC
FFC007FC
FFC007FC
FF8007FC
FF8007FC
FF8007FC
FF8007FC
FF8007FC
FF8007FC
FF8007FC
FF8007FC
FF8007FC
FF8007FC
FF8007FC
FF8007FC
FF8007FC
FF8007FC
FF8007FC
FF8007FC
FF8007FC
FF8007FC
FF8007FC
FF8007FC
FF8007FC
FF8007FC
FF8007FC
ENDCHAR
STARTCHAR i
ENCODING 105
SWIDTH 277 0
DWIDTH 17 0
BBX 9 45 4 0
BITMAP
FF80
FF80
FF80
FF80
FF80
FF80
FF80
FF80
0000
0000
0000
FF80
FF80
FF80
FF80
FF80
FF80
FF80
FF80
FF80
FF80
FF80
FF80
FF80
FF80
FF80
FF80
FF80
FF80
FF80
FF80
FF80
FF80
FF80
FF80
FF80
FF80
FF80
FF80
FF80
FF80
FF80
FF80
FF80
FF80
ENDCHAR
STARTCHAR j
ENCODING 106
SWIDTH 277 0
DWIDTH 17 0
BBX 13 58 0 -13
BITMAP
0FF8
0FF8
0FF8
0FF8
0FF8
0FF8
0FF8
0FF8
0000
0000
0000
0FF8
0FF8
0FF8
0FF8
0FF8
0FF8
0FF8
0FF8
0FF8
0FF8
0FF8
0FF8
0FF8
0FF8
0FF8
0FF8
0FF8
0FF8
0FF8
0FF8
0FF8
0FF8
0FF8
0FF8
0FF8
0FF8
0FF8
0FF8
0FF8
0FF8
0FF8
0FF8
0FF8
0FF8
0FF8
0FF8
0FF8
0FF8
0FF8
1FF8
FFF8
FFF8
FFF0
FFF0
FFE0
FFC0
FF00
ENDCHAR
STARTCHAR k
ENCODING 107
SWIDTH 556 0
DWIDTH 34 0
BBX 29 45 4 0
BITMAP
FF800000
FF800000
FF800000
FF800000
FF800000
FF800000
FF800000
FF800000
FF800000
FF800000
FF800000
FF803FF8
FF807FE0
FF80FFC0
FF80FFC0
FF81FF80
FF83FF00
FF87FE00
FF87FC00
FF8FF800
FF9FF800
FFBFF000
FFBFE000
FFFFC000
FFFFC000
FFFFE000
FFFFE000
FFFFF000
FFFFF000
FFFFF800
FFFFF800
FFE7FC00
FFC7FC00
FFC3FE00
FF83FF00
FF81FF00
FF81FF80
FF80FF80
FF80FFC0
FF807FC0
FF807FE0
FF803FE0
FF803FF0
FF801FF0
FF801FF8
ENDCHAR
STARTCHAR l
ENCODING 108
SWIDTH 277 0
DWIDTH 17 0
BBX 9 45 4 0
BITMAP
FF80
FF80
FF80
FF80
FF80
FF80
FF80
FF80
FF80
FF80
FF80
FF80
FF80
FF80
FF80
FF80
FF80
FF80
FF80
FF80
FF80
FF80
FF80
FF80
FF80
FF80
FF80
FF80
FF80
FF80
FF80
FF80
FF80
FF80
FF80
FF80
FF80
FF80
FF80
FF80
FF80
FF80
FF80
FF80
FF80
ENDCHAR
STARTCHAR m
ENCODING 109
SWIDTH 889 0
DWIDTH 55 0
BBX 47 35 4 0
BITMAP
0001FC007F00
FF8FFF01FFC0
FF9FFF87FFF0
FFBFFFCFFFF8
FFBFFFDFFFF8
FFFFFFFFFFFC
FFFFFFFFFFFC
FFF07FFE0FFE
FFC03FFC07FE
FFC03FF807FE
FF801FF803FE
FF801FF003FE
FF801FF003FE
FF801FF003FE
FF801FF003FE
FF801FF003FE
FF801FF003FE
FF801FF003FE
FF801FF003FE
FF801FF003FE
FF801FF003FE
FF801FF003FE
FF801FF003FE
FF801FF003FE
FF801FF003FE
FF801FF003FE
FF801FF003FE
FF801FF003FE
FF801FF003FE
FF801FF003FE
FF801FF003FE
FF801FF003FE
FF801FF003FE
FF801FF003FE
FF801FF003FE
ENDCHAR
STARTCHAR n
ENCODING 110
SWIDTH 610 0
DWIDTH 38 0
BBX 30 35 4 0
BITMAP
0001FE00
FF87FF80
FF9FFFE0
FFBFFFF0
FFBFFFF0
FFFFFFF8
FFFFFFF8
FFF83FFC
FFE00FFC
FFE00FFC
FFC007FC
FFC007FC
FF8007FC
FF8007FC
FF8007FC
FF8007FC
FF8007FC
FF8007FC
FF8007FC
FF8007FC
FF8007FC
FF8007FC
FF8007FC
FF8007FC
FF8007FC
FF8007FC
FF8007FC
FF8007FC
FF8007FC
FF8007FC
FF8007FC
FF8007FC
FF8007FC
FF8007FC
FF8007FC
ENDCHAR
STARTCHAR o
ENCODING 111
SWIDTH 610 0
DWIDTH 38 0
BBX 34 36 2 -1
BITMAP
000FFC0000
007FFF8000
01FFFFE000
03FFFFF000
07FFFFF800
0FFFFFFC00
1FFFFFFE00
1FFC0FFE00
3FF003FF00
3FE001FF00
7FE001FF80
7FC000FF80
7FC000FF80
FF80007FC0
FF80007FC0
FF80007FC0
FF80007FC0
FF80007FC0
FF80007FC0
FF80007FC0
FF80007FC0
FF80007FC0
FF80007FC0
7FC000FF80
7FC000FF80
7FE001FF80
3FE001FF00
3FF003FF00
1FFC0FFE00
1FFFFFFE00
0FFFFFFC00
07FFFFF800
03FFFFF000
01FFFFE000
007FFF8000
000FFC0000
ENDCHAR
STARTCHAR p
ENCODING 112
SWIDTH 610 0
DWIDTH 38 0
BBX 32 48 4 -13
BITMAP
0001FC00
FF87FF80
FF9FFFC0
FFBFFFE0
FFBFFFF0
FFFFFFF8
FFFFFFFC
FFF81FFC
FFF00FFE
FFE007FE
FFC007FE
FFC003FE
FFC003FF
FF8001FF
FF8001FF
FF8001FF
FF8001FF
FF8001FF
FF8001FF
FF8001FF
FF8001FF
FF8001FF
FF8003FF
FFC003FE
FFC003FE
FFC007FE
FFE007FE
FFF00FFC
FFF83FFC
FFFFFFF8
FFFFFFF8
FFFFFFF0
FFBFFFE0
FF9FFFC0
FF8FFF00
FF81FC00
FF800000
FF800000
FF800000
FF800000
FF800000
FF800000
FF800000
FF800000
FF800000
FF800000
FF800000
FF800000
ENDCHAR
STARTCHAR q
ENCODING 113
SWIDTH 610 0
DWIDTH 38 0
BBX 32 48 2 -13
BITMAP
003F8000
00FFF1FF
03FFF9FF
07FFFDFF
0FFFFDFF
0FFFFFFF
1FFFFFFF
3FF83FFF
3FF00FFF
7FE007FF
7FC007FF
7FC003FF
7FC003FF
FF8001FF
FF8001FF
FF8001FF
FF8001FF
FF8001FF
FF8001FF
FF8001FF
FF8001FF
FF8001FF
FF8001FF
FFC003FF
7FC003FF
7FC007FF
7FE007FF
3FF00FFF
3FF83FFF
1FFFFFFF
1FFFFFFF
0FFFFFFF
07FFFDFF
03FFF9FF
00FFF1FF
003F81FF
000001FF
000001FF
000001FF
000001FF
000001FF
000001FF
000001FF
000001FF
000001FF
000001FF
000001FF
000001FF
ENDCHAR
STARTCHAR r
ENCODING 114
SWIDTH 389 0
DWIDTH 24 0
BBX 19 35 4 0
BITMAP
0001E0
FF87E0
FF8FE0
FF9FE0
FFBFE0
FFBFE0
FFFFE0
FFFFE0
FFFFE0
FFF800
FFF000
FFE000
FFC000
FFC000
FF8000
FF8000
FF8000
FF8000
FF8000
FF8000
FF8000
FF8000
FF8000
FF8000
FF8000
FF8000
FF8000
FF8000
FF8000
FF8000
FF8000
FF8000
FF8000
FF8000
FF8000
ENDCHAR
STARTCHAR s
ENCODING 115
SWIDTH 556 0
DWIDTH 34 0
BBX 30 36 2 -1
BITMAP
003FF000
01FFFE00
03FFFF80
0FFFFFC0
1FFFFFE0
1FFFFFE0
3FFFFFF0
3FF03FF0
7FC01FF8
7FC00FF8
7FC00FF8
7FE00000
7FF80000
7FFF8000
7FFFF800
3FFFFE00
3FFFFF80
1FFFFFE0
07FFFFF0
01FFFFF8
007FFFF8
0007FFFC
0000FFFC
00001FFC
FF8007FC
FF8007FC
FFC007FC
FFC00FFC
7FF01FF8
7FFFFFF8
3FFFFFF0
1FFFFFF0
0FFFFFE0
07FFFF80
01FFFF00
003FF000
ENDCHAR
STARTCHAR t
ENCODING 116
SWIDTH 333 0
DWIDTH 20 0
BBX 19 43 0 0
BITMAP
07FC00
07FC00
07FC00
07FC00
07FC00
07FC00
07FC00
07FC00
07FC00
FFFFE0
FFFFE0
FFFFE0
FFFFE0
FFFFE0
FFFFE0
07FC00
07FC00
07FC00
07FC00
07FC00
07FC00
07FC00
07FC00
07FC00
07FC00
07FC00
07FC00
07FC00
07FC00
07FC00
07FC00
07FC00
07FC00
07FC00
07FC00
07FE00
07FFE0
07FFE0
07FFE0
03FFE0
03FFE0
01FFE0
007FE0
ENDCHAR
STARTCHAR u
ENCODING 117
SWIDTH 610 0
DWIDTH 38 0
BBX 30 35 4 -1
BITMAP
FF8007FC
FF8007FC
FF8007FC
FF8007FC
FF8007FC
FF8007FC
FF8007FC
FF8007FC
FF8007FC
FF8007FC
FF8007FC
FF8007FC
FF8007FC
FF8007FC
FF8007FC
FF8007FC
FF8007FC
FF8007FC
FF8007FC
FF8007FC
FF8007FC
FF8007FC
FF8007FC
FF800FFC
FF800FFC
FFC01FFC
FFC01FFC
7FF07FFC
7FFFFFFC
7FFFFFFC
3FFFF7FC
3FFFF7FC
1FFFE7FC
07FF87FC
01FE0000
ENDCHAR
STARTCHAR v
ENCODING 118
SWIDTH 556 0
DWIDTH 35 0
BBX 33 34 1 0
BITMAP
FFC000FF80
7FC001FF80
7FC001FF00
7FC001FF00
3FE001FF00
3FE003FE00
3FE003FE00
1FF003FC00
1FF007FC00
1FF007FC00
0FF007F800
0FF80FF800
07F80FF800
07F80FF000
07FC0FF000
03FC1FF000
03FC1FE000
03FC1FE000
01FE3FE000
01FE3FC000
01FE3FC000
00FE3F8000
00FF7F8000
00FF7F8000
007F7F0000
007FFF0000
003FFF0000
003FFE0000
003FFE0000
001FFE0000
001FFC0000
001FFC0000
000FF80000
000FF80000
ENDCHAR
STARTCHAR w
ENCODING 119
SWIDTH 777 0
DWIDTH 50 0
BBX 49 34 0 0
BITMAP
FFC00FF801FF80
7FC00FF801FF00
7FC00FF801FF00
7FC01FF801FF00
3FC01FFC01FF00
3FE01FFC03FE00
3FE01FFC03FE00
3FE01FFC03FE00
1FE03FFE03FC00
1FE03F7E03FC00
1FF03F7E07FC00
1FF03F7E07FC00
0FF07F7F07F800
0FF07E3F07F800
0FF07E3F07F800
0FF87E3F0FF000
07F8FE3F8FF000
07F8FE3F8FF000
07F8FC1F8FF000
03FCFC1F8FE000
03FDFC1FDFE000
03FDFC1FDFE000
03FDF80FDFE000
01FDF80FDFC000
01FFF80FFFC000
01FFF80FFFC000
01FFF007FF8000
00FFF007FF8000
00FFF007FF8000
00FFF007FF8000
00FFE003FF0000
007FE003FF0000
007FE003FF0000
007FE003FE0000
ENDCHAR
STARTCHAR x
ENCODING 120
SWIDTH 556 0
DWIDTH 35 0
BBX 34 34 0 0
BITMAP
FFE001FFC0
7FF003FF00
3FF807FF00
1FF807FE00
0FFC0FFC00
0FFC0FFC00
07FE1FF800
03FF1FF000
03FF3FF000
01FFFFE000
00FFFFC000
00FFFFC000
007FFF8000
003FFF0000
003FFF0000
001FFE0000
000FFC0000
001FFE0000
001FFE0000
003FFF0000
007FFF8000
007FFF8000
00FFFFC000
01FFFFE000
01FF3FE000
03FF3FF000
07FE1FF800
07FE1FF800
0FFC0FFC00
1FFC0FFE00
1FF807FE00
3FF003FF00
7FF003FF80
FFE001FFC0
ENDCHAR
STARTCHAR y
ENCODING 121
SWIDTH 556 0
DWIDTH 36 0
BBX 33 47 1 -13
BITMAP
FF8000FF80
FFC001FF80
7FC001FF00
7FC001FF00
7FE003FF00
3FE003FE00
3FE003FE00
3FE003FC00
1FF007FC00
1FF007FC00
1FF007F800
0FF80FF800
0FF80FF800
07F80FF000
07F80FF000
07FC1FF000
03FC1FE000
03FC1FE000
03FE3FE000
01FE3FC000
01FE3FC000
01FE3F8000
00FF7F8000
00FF7F8000
00FF7F0000
007FFF0000
007FFF0000
007FFE0000
003FFE0000
003FFE0000
003FFC0000
001FFC0000
001FFC0000
001FF80000
000FF80000
000FF00000
000FF00000
001FF00000
001FE00000
007FE00000
0FFFC00000
0FFFC00000
0FFF800000
0FFF800000
0FFF000000
0FFE000000
0FF8000000
ENDCHAR
STARTCHAR z
ENCODING 122
SWIDTH 500 0
DWIDTH 30 0
BBX 28 34 1 0
BITMAP
7FFFFFE0
7FFFFFE0
7FFFFFE0
7FFFFFE0
7FFFFFE0
7FFFFFE0
7FFFFFE0
0001FFE0
0003FFC0
0003FF80
0007FF00
000FFE00
001FFE00
001FFC00
003FF800
007FF000
00FFF000
01FFE000
01FFC000
03FF8000
07FF0000
0FFF0000
0FFE0000
1FFC0000
3FF80000
7FF80000
FFF00000
FFFFFFF0
FFFFFFF0
FFFFFFF0
FFFFFFF0
FFFFFFF0
FFFFFFF0
FFFFFFF0
ENDCHAR
STARTCHAR braceleft
ENCODING 123
SWIDTH 389 0
DWIDTH 24 0
BBX 19 58 2 -13
BITMAP
0003E0
001FE0
003FE0
00FFE0
00FFE0
01FF80
01FE00
03FE00
03FC00
03FC00
03FC00
03FC00
03FC00
03FC00
03FC00
03FC00
03FC00
03FC00
03FC00
03FC00
03FC00
03FC00
07F800
07F800
0FF800
1FF000
7FE000
FFC000
FF0000
FF0000
FFC000
7FE000
1FF000
0FF800
07F800
07FC00
03FC00
03FC00
03FC00
03FC00
03FC00
03FC00
03FC00
03FC00
03FC00
03FC00
03FC00
03FC00
03FC00
03FC00
03FE00
03FF00
01FFC0
01FFE0
00FFE0
007FE0
001FE0
0003E0
ENDCHAR
STARTCHAR bar
ENCODING 124
SWIDTH 279 0
DWIDTH 18 0
BBX 8 45 6 0
BITMAP
FF
FF
FF
FF
FF
FF
FF
FF
FF
FF
FF
FF
FF
FF
FF
FF
FF
FF
FF
FF
FF
FF
FF
FF
FF
FF
FF
FF
FF
FF
FF
FF
FF
FF
FF
FF
FF
FF
FF
FF
FF
FF
FF
FF
FF
ENDCHAR
STARTCHAR braceright
ENCODING 125
SWIDTH 389 0
DWIDTH 24 0
BBX 19 58 3 -13
BITMAP
F80000
FF0000
FF8000
FFE000
FFE000
3FF000
0FF000
0FF800
07F800
07F800
07F800
07F800
07F800
07F800
07F800
07F800
07F800
07F800
07F800
07F800
07F800
07F800
03FC00
03FC00
03FE00
01FF00
00FFC0
007FE0
001FE0
001FE0
007FE0
00FFC0
01FF00
03FE00
03FC00
07FC00
07F800
07F800
07F800
07F800
07F800
07F800
07F800
07F800
07F800
07F800
07F800
07F800
07F800
07F800
0FF800
1FF800
7FF000
FFE000
FFE000
FFC000
FF0000
F80000
ENDCHAR
STARTCHAR asciitilde
ENCODING 126
SWIDTH 583 0
DWIDTH 37 0
BBX 37 14 0 9
BITMAP
00000001F8
00FC0001F8
03FF8003F0
0FFFF007F0
1FFFFE0FF0
1FFFFFFFE0
3FFFFFFFE0
3FFFFFFFE0
7FFFFFFFC0
7F83FFFF80
7F007FFF00
FE000FFE00
FC0001F800
FC00000000
ENDCHAR
STARTCHAR uni00A0
ENCODING 160
SWIDTH 277 0
DWIDTH 17 0
BBX 1 1 0 0
BITMAP
00
ENDCHAR
STARTCHAR exclamdown
ENCODING 161
SWIDTH 333 0
DWIDTH 20 0
BBX 9 46 7 -12
BITMAP
FF80
FF80
FF80
FF80
FF80
FF80
FF80
FF80
FF80
0000
0000
0000
0000
3E00
3E00
3E00
3E00
3E00
7F00
7F00
7F00
7F00
7F00
7F00
7F00
7F00
7F00
7F00
7F00
FF80
FF80
FF80
FF80
FF80
FF80
FF80
FF80
FF80
FF80
FF80
FF80
FF80
FF80
FF80
FF80
FF80
ENDCHAR
STARTCHAR cent
ENCODING 162
SWIDTH 556 0
DWIDTH 34 0
BBX 30 47 2 -7
BITMAP
00001E00
00001C00
00001C00
00001C00
00003800
001FF800
00FFFC00
01FFFF00
03FFFFC0
07FFFFE0
0FFFFFE0
1FFFFFF0
3FF8FFF8
3FF0FFF8
7FE0EFF8
7FE1CFFC
7FC1C7FC
7FC1C7FC
FFC1C000
FF838000
FF838000
FF838000
FF838000
FF870000
FF870000
FF870000
FF8F0000
FF8E0000
FF8E07FC
7FCE07FC
7FDE0FFC
7FFC0FF8
3FFC1FF8
3FFC7FF8
1FFFFFF0
1FFFFFE0
0FFFFFE0
07FFFFC0
03FFFF80
00FFFE00
007FF000
00F00000
00E00000
00E00000
00E00000
01E00000
01C00000
ENDCHAR
STARTCHAR sterling
ENCODING 163
SWIDTH 556 0
DWIDTH 34 0
BBX 31 46 2 -1
BITMAP
001FF000
00FFFE00
03FFFF00
07FFFFC0
0FFFFFE0
1FFFFFF0
1FFFFFF0
3FF83FF8
3FF00FF8
7FE007F8
7FC007FC
7FC003FC
7FC003FC
7FC003FC
7FC00000
7FC00000
7FE00000
3FE00000
3FE00000
1FF00000
1FF00000
1FF80000
FFFFF800
FFFFF800
FFFFF800
03FC0000
03FC0000
01FC0000
01FC0000
01FC0000
01FC0000
01F80000
01F80000
03F00000
07F00000
07E00008
0FCFC018
3FFFF878
7FFFFFFC
FFFFFFFC
7FFFFFFC
7FFFFFFE
3FFFFFFE
3F07FFFC
1C01FFF0
10003F80
ENDCHAR
STARTCHAR currency
ENCODING 164
SWIDTH 556 0
DWIDTH 35 0
BBX 31 31 2 6
BITMAP
08000020
1C000070
3E0FE0F8
7F3FF9FC
FFFFFFFE
7FFFFFFC
3FFFFFF8
1FFFFFF0
0FFFFFE0
0FF83FE0
1FE00FF0
1FC007F0
3FC007F8
3F8003F8
3F8003F8
3F8003F8
3F8003F8
3F8003F8
3FC007F8
1FC007F0
1FE00FF0
0FF83FE0
0FFFFFE0
1FFFFFF0
3FFFFFF8
7FFFFFFC
FFFFFFFE
7F3FF9FC
3E0FE0F8
1C000070
08000020
ENDCHAR
STARTCHAR yen
ENCODING 165
SWIDTH 556 0
DWIDTH 34 0
BBX 35 44 0 0
BITMAP
FFC0007FE0
7FE000FFC0
7FE000FFC0
3FE000FF80
3FF001FF80
1FF001FF00
1FF803FF00
0FF803FE00
0FFC03FE00
07FC07FC00
07FC07FC00
03FE0FF800
03FE0FF800
01FF0FF000
1FFF1FFF00
1FFF1FFF00
1FFFBFFF00
1FFFBFFF00
007FFFC000
003FFFC000
003FFF8000
003FFF8000
001FFF0000
001FFF0000
000FFE0000
07FFFFFC00
07FFFFFC00
07FFFFFC00
07FFFFFC00
0007FC0000
0007FC0000
0007FC0000
0007FC0000
0007FC0000
0007FC0000
0007FC0000
0007FC0000
0007FC0000
0007FC0000
0007FC0000
0007FC0000
0007FC0000
0007FC0000
0007FC0000
ENDCHAR
STARTCHAR section
ENCODING 167
SWIDTH 556 0
DWIDTH 34 0
BBX 30 57 2 -12
BITMAP
001FF000
007FFC00
01FFFF00
03FFFF80
07FFFFC0
07FFFFC0
0FFFFFE0
0FF83FE0
1FF01FE0
1FE00FF0
1FE00FF0
1FE00FF0
1FE00000
1FF00000
1FFC0000
0FFF0000
0FFFC000
07FFF000
03FFFC00
07FFFF00
0FFFFFC0
1FFFFFE0
3F8FFFF0
7F03FFF0
7E00FFF8
FE003FFC
FE000FFC
FF0007FC
FF8003FC
FFE001FC
FFF801FC
7FFE01F8
7FFF83F8
3FFFE7F0
1FFFFFF0
07FFFFC0
03FFFF80
00FFFF80
003FFFC0
000FFFC0
0003FFE0
0000FFE0
00003FF0
00001FF0
00000FF0
3FC00FF0
3FC00FF0
3FE00FF0
1FF01FF0
1FF83FE0
1FFFFFE0
0FFFFFC0
0FFFFFC0
07FFFF80
01FFFE00
00FFFC00
001FE000
ENDCHAR
STARTCHAR dieresis
ENCODING 168
SWIDTH 333 0
DWIDTH 21 0
BBX 20 7 1 38
BITMAP
FF0FF0
FF0FF0
FF0FF0
FF0FF0
FF0FF0
FF0FF0
FF0FF0
ENDCHAR
STARTCHAR copyright
ENCODING 169
SWIDTH 736 0
DWIDTH 46 0
BBX 45 45 1 0
BITMAP
00003FE00000
0003FFFE0000
000FFFFF8000
003FFFFFE000
007FC01FF000
00FE0003F800
01F80000FC00
03F000007E00
07C000003F00
0F803F800F80
1F00FFF00FC0
1F03FFF807C0
3E07FFFC03E0
3C07FFFE01E0
7C0FF0FF01F0
781FE03F00F0
781FC03F00F0
F81FC01F80F0
F03F801F8078
F03F80000078
F03F80000078
F03F80000078
F03F80000078
F03F80000078
F03F80000078
F03F80000078
F01FC01F8078
F81FC01F80F0
781FE03F00F0
780FF07F00F0
7C07FFFE01F0
3C03FFFE01E0
3E01FFFC03E0
1F00FFF007C0
1F001FC007C0
0F8000000F80
07C000001F00
03F000007E00
03F80000FC00
00FE0003F800
007FC01FF000
003FFFFFE000
000FFFFF8000
0003FFFE0000
00007FE00000
ENDCHAR
STARTCHAR ordfeminine
ENCODING 170
SWIDTH 370 0
DWIDTH 23 0
BBX 20 21 1 25
BITMAP
03FE00
0FFF80
1FFFC0
3FFFC0
3F0FE0
7E07E0
7E07E0
0007E0
00FFE0
0FFFE0
3FFFE0
7FE7E0
FE07E0
FC07E0
FC07E0
FC0FE0
FE1FE0
FFFFE0
7FFFE0
3FF3E0
0FC3F0
ENDCHAR
STARTCHAR guillemotleft
ENCODING 171
SWIDTH 556 0
DWIDTH 34 0
BBX 23 26 6 4
BITMAP
004002
004002
00C006
01C00E
03C01E
07C03E
1FC0FE
3FC1FE
7F83FC
FF07F8
FE07F0
FC07E0
F807C0
F807C0
FC07E0
FE07F0
FF07F8
7F83FC
3FC1FE
1FC0FE
07C03E
03C01E
01C00E
00C006
004002
004002
ENDCHAR
STARTCHAR logicalnot
ENCODING 172
SWIDTH 583 0
DWIDTH 36 0
BBX 33 22 2 5
BITMAP
FFFFFFFF80
FFFFFFFF80
FFFFFFFF80
FFFFFFFF80
FFFFFFFF80
FFFFFFFF80
FFFFFFFF80
FFFFFFFF80
0000007F80
0000007F80
0000007F80
0000007F80
0000007F80
0000007F80
0000007F80
0000007F80
0000007F80
0000007F80
0000007F80
0000007F80
0000007F80
0000007F80
ENDCHAR
STARTCHAR hyphen.dup1
ENCODING 173
SWIDTH 333 0
DWIDTH 20 0
BBX 17 8 1 13
BITMAP
FFFF80
FFFF80
FFFF80
FFFF80
FFFF80
FFFF80
FFFF80
FFFF80
ENDCHAR
STARTCHAR registered
ENCODING 174
SWIDTH 736 0
DWIDTH 45 0
BBX 44 45 1 0
BITMAP
00007FE00000
0003FFFC0000
000FFFFF0000
003FFFFFC000
007FC03FE000
00FE0007F000
03F80001F800
07E00000FC00
07C000003E00
0F8000001F00
1F0FFFE00F80
1F0FFFF80F80
3E0FFFFC07C0
3C0FFFFE03C0
7C0FE1FE03E0
780FE0FF01E0
780FE07F01E0
F80FE07F01E0
F00FE07F00F0
F00FE07F00F0
F00FE0FE00F0
F00FE1FE00F0
F00FFFF800F0
F00FFF8000F0
F00FFFF800F0
F00FFFFC00F0
F00FE1FE00F0
F80FE0FF01E0
780FE07F01E0
780FE07F01E0
7C0FE07F03E0
3C0FE07F03C0
3E0FE07F07C0
1F0FE07F0F80
1F0FE07F0F80
0F8000001F00
07C000003E00
07E000007C00
03F80001FC00
01FE0007F000
007FC03FE000
003FFFFFC000
000FFFFF0000
0003FFFC0000
00007FE00000
ENDCHAR
STARTCHAR degree
ENCODING 176
SWIDTH 399 0
DWIDTH 25 0
BBX 20 20 3 25
BITMAP
01F800
07FE00
1FFF80
3FFFC0
3FFFC0
7F0FE0
7C03E0
FC03F0
F801F0
F801F0
F801F0
F801F0
FC03F0
7C03E0
7F0FE0
3FFFC0
3FFFC0
1FFF80
07FE00
01F800
ENDCHAR
STARTCHAR plusminus
ENCODING 177
SWIDTH 548 0
DWIDTH 33 0
BBX 32 32 1 0
BITMAP
000FF000
000FF000
000FF000
000FF000
000FF000
000FF000
000FF000
000FF000
FFFFFFFF
FFFFFFFF
FFFFFFFF
FFFFFFFF
FFFFFFFF
FFFFFFFF
FFFFFFFF
000FF000
000FF000
000FF000
000FF000
000FF000
000FF000
000FF000
000FF000
00000000
00000000
FFFFFFFF
FFFFFFFF
FFFFFFFF
FFFFFFFF
FFFFFFFF
FFFFFFFF
FFFFFFFF
ENDCHAR
STARTCHAR acute
ENCODING 180
SWIDTH 333 0
DWIDTH 20 0
BBX 15 9 5 39
BITMAP
07FE
07FC
0FF8
1FF0
1FE0
3FC0
3F80
7F00
FE00
ENDCHAR
STARTCHAR mu
ENCODING 181
SWIDTH 576 0
DWIDTH 36 0
BBX 40 48 -4 -14
BITMAP
007FC003FF
007FC003FE
007FC003FE
007FC003FE
00FFC003FE
00FF8007FE
00FF8007FC
00FF8007FC
00FF8007FC
01FF8007FC
01FF0007FC
01FF000FFC
01FF000FF8
01FF000FF8
01FF000FF8
03FE000FF8
03FE001FF8
03FE001FF0
03FE001FF0
03FE001FF0
07FE001FF0
07FC003FF0
07FC003FF0
07FC007FE0
07FC007FE0
07FC00FFE0
0FFE01FFE0
0FFF07FFE0
0FFFFFFFE0
0FFFFFFFC0
0FFFFF7FC0
1FFFFE7FC0
1FFFFC7FC0
1FFFF8FFC0
1FF3E00000
1FF0000000
1FF0000000
3FF0000000
3FE0000000
3FE0000000
3FE0000000
3FE0000000
7FE0000000
7FC0000000
7FC0000000
7FC0000000
7FC0000000
FFC0000000
ENDCHAR
STARTCHAR paragraph
ENCODING 182
SWIDTH 556 0
DWIDTH 34 0
BBX 34 56 0 -11
BITMAP
003FFFFFC0
01FFFFFFC0
03FFFFFFC0
07FFFFFFC0
0FFFFFFFC0
1FFFE0FE00
3FFFE0FE00
3FFFE0FE00
7FFFE0FE00
7FFFE0FE00
7FFFE0FE00
FFFFE0FE00
FFFFE0FE00
FFFFE0FE00
FFFFE0FE00
FFFFE0FE00
FFFFE0FE00
FFFFE0FE00
FFFFE0FE00
FFFFE0FE00
7FFFE0FE00
7FFFE0FE00
7FFFE0FE00
3FFFE0FE00
3FFFE0FE00
1FFFE0FE00
0FFFE0FE00
07FFE0FE00
03FFE0FE00
00FFE0FE00
000FE0FE00
000FE0FE00
000FE0FE00
000FE0FE00
000FE0FE00
000FE0FE00
000FE0FE00
000FE0FE00
000FE0FE00
000FE0FE00
000FE0FE00
000FE0FE00
000FE0FE00
000FE0FE00
000FE0FE00
000FE0FE00
000FE0FE00
000FE0FE00
000FE0FE00
000FE0FE00
000FE0FE00
000FE0FE00
000FE0FE00
000FE0FE00
000FE0FE00
000FE0FE00
ENDCHAR
STARTCHAR periodcentered
ENCODING 183
SWIDTH 277 0
DWIDTH 17 0
BBX 10 10 3 17
BITMAP
1E00
7F80
7F80
FFC0
FFC0
FFC0
FFC0
7F80
7F80
1E00
ENDCHAR
STARTCHAR cedilla
ENCODING 184
SWIDTH 333 0
DWIDTH 21 0
BBX 15 14 2 -14
BITMAP
0780
1F00
7E00
FFF0
3FFC
1FFC
10FE
007E
007E
007E
60FC
7FFC
FFF0
3FC0
ENDCHAR
STARTCHAR ordmasculine
ENCODING 186
SWIDTH 365 0
DWIDTH 23 0
BBX 22 21 1 25
BITMAP
01FE00
07FF80
1FFFE0
3FFFF0
3F87F0
7E01F8
7E01F8
FC00FC
FC00FC
FC00FC
FC00FC
FC00FC
FC00FC
FC00FC
7E01F8
7E01F8
3F87F0
3FFFF0
1FFFE0
07FF80
01FE00
ENDCHAR
ENDFONT
